# xmcd
#
# Track frame offsets:
#	150
#	18956
#	35316
#	55395
#	76094
#	94712
#
# Disc length: 1549 seconds
#
# Revision: 1
# Processed by: cddbd v1.5.2PL0 Copyright (c) Steve Scherf et al.
# Submitted via: audiograbber 1.83.01
#
DISCID=39060b06
DTITLE=Suzi Fray, Jo Tayor, Liala Glanstefani - The Johnnys
DYEAR=2012
DGENRE=
TTITLE0=Folsom Prison Blues
TTITLE1=Cry, Cry, Cry
TTITLE2=Ring of Fire
TTITLE3=Jackson
TTITLE4=Long Black Veil
TTITLE5=Peace in the Valley
EXTD=
EXTT0=
EXTT1=
EXTT2=
EXTT3=
EXTT4=
EXTT5=
PLAYORDER=
